<svg xmlns="http://www.w3.org/2000/svg" width="22.386" height="19.917" viewBox="0 0 22.386 19.917">
  <path id="Path_1" data-name="Path 1" d="M11.193,47.917a1.313,1.313,0,0,1-.865-.325c-.9-.791-1.776-1.534-2.546-2.189l0,0A47.341,47.341,0,0,1,2.22,40.182,8.332,8.332,0,0,1,0,34.728a7,7,0,0,1,1.776-4.779A6.02,6.02,0,0,1,6.254,28a5.631,5.631,0,0,1,3.517,1.214A7.2,7.2,0,0,1,11.193,30.7a7.2,7.2,0,0,1,1.422-1.485A5.631,5.631,0,0,1,16.133,28a6.02,6.02,0,0,1,4.478,1.949,7,7,0,0,1,1.776,4.779,8.331,8.331,0,0,1-2.22,5.454A47.334,47.334,0,0,1,14.609,45.4c-.771.657-1.644,1.4-2.55,2.194A1.314,1.314,0,0,1,11.193,47.917ZM6.254,29.311A4.723,4.723,0,0,0,2.74,30.838a5.692,5.692,0,0,0-1.429,3.89A7.011,7.011,0,0,0,3.23,39.345a46.589,46.589,0,0,0,5.4,5.055l0,0c.772.658,1.647,1.4,2.559,2.2.916-.8,1.793-1.545,2.567-2.2a46.6,46.6,0,0,0,5.4-5.055,7.011,7.011,0,0,0,1.919-4.617,5.692,5.692,0,0,0-1.429-3.89,4.723,4.723,0,0,0-3.514-1.527,4.349,4.349,0,0,0-2.715.94A6.364,6.364,0,0,0,11.9,32a.828.828,0,0,1-1.422,0,6.358,6.358,0,0,0-1.513-1.751A4.349,4.349,0,0,0,6.254,29.311Z" transform="translate(0 -28)" fill="#f2114e"/>
</svg>
