<?xml version="1.0" encoding="utf-8"?>
<!-- Generator: Adobe Illustrator 24.0.3, SVG Export Plug-In . SVG Version: 6.00 Build 0)  -->
<svg version="1.1" id="Layer_1" xmlns="http://www.w3.org/2000/svg" xmlns:xlink="http://www.w3.org/1999/xlink" x="0px" y="0px"
	 viewBox="0 0 22.4 19.9" style="enable-background:new 0 0 22.4 19.9;" xml:space="preserve">
<style type="text/css">
	.st0{fill:#F2114E;}
</style>
<path class="st0" d="M20.6,1.9c-1.2-1.3-2.8-2-4.5-1.9c-1.3,0-2.5,0.4-3.5,1.2c-0.5,0.4-1,0.9-1.4,1.5c-0.4-0.6-0.9-1.1-1.4-1.5
	C8.8,0.4,7.5,0,6.3,0C4.6,0,2.9,0.7,1.8,1.9C0.6,3.3,0,5,0,6.7c0.1,2,0.8,4,2.2,5.5c1.7,1.9,3.6,3.6,5.6,5.2
	c0.8,0.7,1.6,1.4,2.5,2.2c0.2,0.2,0.5,0.3,0.9,0.3c0.3,0,0.6-0.1,0.9-0.3c0.9-0.8,1.8-1.5,2.5-2.2c2-1.6,3.8-3.3,5.6-5.2
	c1.4-1.5,2.2-3.4,2.2-5.5C22.4,5,21.8,3.3,20.6,1.9z"/>
</svg>
