<svg id="Group_32" data-name="Group 32" xmlns="http://www.w3.org/2000/svg" width="21.126" height="22.075" viewBox="0 0 21.126 22.075">
  <g id="Group_17" data-name="Group 17" transform="translate(0 0)">
    <path id="Path_14" data-name="Path 14" d="M31.156,9.694,21.333.21A.737.737,0,0,0,20.3.21L10.482,9.693A.741.741,0,0,0,11,10.967H12.3V21.335a.741.741,0,0,0,.741.741h5.184a.741.741,0,0,0,.741-.741V15.41h3.7v5.925a.741.741,0,0,0,.741.741H28.6a.741.741,0,0,0,.741-.741V10.967h1.305a.741.741,0,0,0,.515-1.273Zm-1.82.533a.741.741,0,0,0-.741.741V21.335H23.411V15.41a.741.741,0,0,0-.741-.741h-3.7a.741.741,0,0,0-.741.741v5.925H13.043V10.967a.741.741,0,0,0-.741-.741H11L20.819.743l9.826,9.484Z" transform="translate(-10.256 -0.001)" fill="#fff"/>
  </g>
</svg>
