<svg xmlns="http://www.w3.org/2000/svg" width="23.144" height="23.142" viewBox="0 0 23.144 23.142">
  <g id="Group_219" data-name="Group 219" transform="translate(-17.99 -18.252)">
    <path id="Path_17" data-name="Path 17" d="M269.645,18.407a.528.528,0,0,0-.379-.155.55.55,0,0,0-.379.155l-7.64,7.639-.021.022-.011.011c-.011.016-.027.032-.037.048s-.005.005-.005.011-.016.027-.027.043-.005.011-.011.016-.011.027-.016.043-.005.005-.005.011l-1.36,4.1a.526.526,0,0,0,.128.544.537.537,0,0,0,.379.155.638.638,0,0,0,.171-.027l4.092-1.366c.005,0,.005,0,.01-.005a.189.189,0,0,0,.048-.021.018.018,0,0,0,.011-.006c.016-.011.037-.021.053-.032s.032-.027.048-.037.011-.005.011-.011.016-.011.022-.021l7.644-7.645a.531.531,0,0,0,0-.752Zm-7.789,9.005,1.51,1.51-2.262.752Zm2.5.987-1.974-1.974,6.887-6.887,1.974,1.974Z" transform="translate(-231.393 0)" fill="#fff"/>
    <path id="Path_18" data-name="Path 18" d="M36.992,108.906a.535.535,0,0,0-.533.533v9.971a1.605,1.605,0,0,1-1.6,1.6h-14.2a1.605,1.605,0,0,1-1.6-1.6v-14.2a1.605,1.605,0,0,1,1.6-1.6h9.97a.533.533,0,0,0,0-1.067h-9.97a2.669,2.669,0,0,0-2.667,2.667v14.2a2.668,2.668,0,0,0,2.667,2.667h14.2a2.668,2.668,0,0,0,2.667-2.667v-9.971A.535.535,0,0,0,36.992,108.906Z" transform="translate(0 -80.682)" fill="#fff"/>
  </g>
</svg>
