<svg id="Group_33" data-name="Group 33" xmlns="http://www.w3.org/2000/svg" width="18.32" height="22.794" viewBox="0 0 18.32 22.794">
  <path id="Path_15" data-name="Path 15" d="M168.891,30.368a5.689,5.689,0,1,0-5.689-5.689A5.689,5.689,0,0,0,168.891,30.368Zm0-10.414a4.725,4.725,0,1,1-4.725,4.725A4.725,4.725,0,0,1,168.891,19.954Z" transform="translate(-159.731 -18.99)" fill="#fff"/>
  <path id="Path_16" data-name="Path 16" d="M82.562,350.126a8.979,8.979,0,0,0-6.479,2.7,9.636,9.636,0,0,0-2.681,6.808.483.483,0,0,0,.482.482H91.24a.483.483,0,0,0,.482-.482,9.625,9.625,0,0,0-2.68-6.8A8.984,8.984,0,0,0,82.562,350.126Zm-8.186,9.03a8.611,8.611,0,0,1,2.391-5.646,8.148,8.148,0,0,1,11.58,0,8.587,8.587,0,0,1,2.391,5.646Z" transform="translate(-73.402 -337.326)" fill="#fff"/>
</svg>
