<svg id="Group_39" data-name="Group 39" xmlns="http://www.w3.org/2000/svg" width="23.487" height="23.488" viewBox="0 0 23.487 23.488">
  <path id="Path_31" data-name="Path 31" d="M.638,2.229,2.2,4.968a.391.391,0,0,0,.245.185l1.46.365,5.008,5.008.553-.553L4.383,4.887a.39.39,0,0,0-.182-.1L2.8,4.432,1.466,2.1,2.608.956,4.943,2.29l.352,1.4a.39.39,0,0,0,.1.182l5.087,5.087.553-.553L6.029,3.4,5.664,1.94A.392.392,0,0,0,5.479,1.7L2.74.13a.391.391,0,0,0-.47.063L.705,1.759A.391.391,0,0,0,.638,2.229Z" transform="translate(-0.586 -0.076)" fill="#fff"/>
  <path id="Path_33" data-name="Path 33" d="M52.229,398.641a.391.391,0,0,0-.335-.19H49.546a.391.391,0,0,0-.335.19L48.037,400.6a.391.391,0,0,0,0,.4l1.174,1.956a.391.391,0,0,0,.335.19h2.348a.392.392,0,0,0,.335-.19L53.4,401a.391.391,0,0,0,0-.4Zm-.557,3.723h-1.9l-.939-1.565.939-1.565h1.9l.939,1.565Z" transform="translate(-46.024 -382.016)" fill="#fff"/>
  <path id="Path_34" data-name="Path 34" d="M19.329,9.392a4.679,4.679,0,0,0,4.551-5.83.391.391,0,0,0-.656-.182L20.788,5.814,18.856,5.17l-.645-1.932L20.647.8a.391.391,0,0,0-.183-.657A4.681,4.681,0,0,0,14.633,4.7a4.592,4.592,0,0,0,.1.917L6.159,14.183a4.616,4.616,0,0,0-.917-.1,4.7,4.7,0,1,0,4.7,4.7,4.6,4.6,0,0,0-.1-.917l2.051-2.052.9.9a.391.391,0,0,0,.553,0l.2-.2a.439.439,0,0,1,.621.62h0l-.2.2a.391.391,0,0,0,0,.553l4.668,4.668a3.158,3.158,0,1,0,4.486-4.446l-.02-.02L18.431,13.42a.391.391,0,0,0-.553,0l-.2.2a.439.439,0,0,1-.621-.62h0l.2-.2a.391.391,0,0,0,0-.553l-.9-.9L18.412,9.3A4.6,4.6,0,0,0,19.329,9.392Zm1.537,13.3a2.378,2.378,0,0,1-.832-.152l3.056-3.056A2.373,2.373,0,0,1,20.866,22.7Zm-4.433-10.17a1.221,1.221,0,0,0,1.722,1.719l4.391,4.395c.048.048.092.1.135.149l-3.345,3.345c-.051-.043-.1-.088-.15-.135l-4.394-4.395a1.221,1.221,0,0,0-1.722-1.719l-.626-.626L15.807,11.9Zm1.58-3.935L9.137,17.465a.392.392,0,0,0-.1.372,3.939,3.939,0,1,1-2.845-2.846.4.4,0,0,0,.372-.1l8.874-8.875a.391.391,0,0,0,.1-.372A3.894,3.894,0,0,1,19.551.79L17.487,2.855a.391.391,0,0,0-.095.4L18.175,5.6a.392.392,0,0,0,.248.247l2.348.783a.391.391,0,0,0,.4-.094l2.064-2.064q.007.112.007.222a3.893,3.893,0,0,1-4.859,3.791.392.392,0,0,0-.372.1h0Z" transform="translate(-0.547 0)" fill="#fff"/>
</svg>
